<svg width="102" height="33" viewBox="0 0 102 33" fill="none" xmlns="http://www.w3.org/2000/svg">
<path d="M24.2472 6.625L20.9922 26H16.1562L12.5912 10.624L9.02616 26H4.19016L0.935156 6.625H4.03516L6.70116 23.148H6.98016L10.9482 6.625H14.2342L18.2022 23.148H18.4812L21.1472 6.625H24.2472ZM27.0296 16.328C27.0296 13.414 27.2363 11.2543 27.6496 9.849C28.063 8.44367 28.807 7.48267 29.8816 6.966C30.9563 6.42867 32.62 6.16 34.8726 6.16C37.1046 6.16 38.758 6.42867 39.8326 6.966C40.928 7.50333 41.6823 8.47467 42.0956 9.88C42.509 11.2853 42.7156 13.4347 42.7156 16.328C42.7156 19.2213 42.509 21.3707 42.0956 22.776C41.6823 24.1813 40.928 25.1527 39.8326 25.69C38.758 26.2067 37.1046 26.465 34.8726 26.465C32.62 26.465 30.9563 26.2067 29.8816 25.69C28.807 25.1527 28.063 24.1813 27.6496 22.776C27.2363 21.3707 27.0296 19.2213 27.0296 16.328ZM36.7326 23.83C37.7246 23.83 38.417 23.6647 38.8096 23.334C39.2023 23.0033 39.3986 22.4143 39.3986 21.567V8.795H32.9816C31.9896 8.795 31.2973 8.96033 30.9046 9.291C30.5326 9.62167 30.3466 10.2107 30.3466 11.058V23.83H36.7326ZM58.2387 26L55.0147 19.149H50.6127V26H47.5127V6.625H55.2627C56.6473 6.625 57.722 6.83167 58.4867 7.245C59.272 7.65833 59.83 8.34033 60.1607 9.291C60.512 10.221 60.6877 11.5127 60.6877 13.166C60.6877 14.7573 60.481 16.0077 60.0677 16.917C59.675 17.8057 59.024 18.4257 58.1147 18.777L61.6177 26H58.2387ZM50.6127 16.7H55.2937C56.0997 16.7 56.6577 16.607 56.9677 16.421C57.2777 16.235 57.4327 15.894 57.4327 15.398V10.5C57.4327 10.004 57.2777 9.663 56.9677 9.477C56.6577 9.291 56.0997 9.198 55.2937 9.198H50.6127V16.7ZM79.5381 26H76.0971L73.8341 21.195C73.4414 20.389 73.1314 19.6863 72.9041 19.087C72.6974 18.467 72.5941 17.8573 72.5941 17.258H68.5951V26H65.4951V6.625H68.5951V14.84H72.5941C72.5941 14.22 72.6974 13.6 72.9041 12.98C73.1314 12.3393 73.4414 11.647 73.8341 10.903L75.9421 6.625H79.3831L74.7331 16.049L79.5381 26Z" fill="#83A8DE"/>
<path d="M84.54 8.57324C85.113 7.67806 85.7109 6.8903 86.334 6.20996L88.6436 8.02539C88.3356 8.40495 88.0492 8.77734 87.7842 9.14258C87.7842 9.14258 87.5085 9.53288 86.957 10.3135L84.54 8.57324ZM87.3652 21.7969C87.3652 22.4128 87.3796 22.8138 87.4082 23H84.6797V11.7744H87.3652V21.7969ZM93.2305 21.625C93.2305 22.2552 93.2591 22.7135 93.3164 23H90.6201V11.7744H93.2305V12.7305C94.1758 11.9499 95.1855 11.5596 96.2598 11.5596C97.4342 11.5596 98.3724 11.9606 99.0742 12.7627C99.776 13.5576 100.127 14.6068 100.127 15.9102V20.1855C100.127 21.3958 100.145 22.1227 100.181 22.3662C100.216 22.6097 100.263 22.7673 100.32 22.8389C100.385 22.9105 100.438 22.9749 100.481 23.0322L100.46 23.0752C99.8799 23.0251 99.4574 23 99.1924 23H98.4404C98.2113 23 97.9033 23.0107 97.5166 23.0322V17.1777C97.5166 15.0794 96.8792 14.0303 95.6045 14.0303C94.6592 14.0303 93.8678 14.5173 93.2305 15.4912V21.625Z" fill="#83A8DE"/>
<line x1="82" y1="26.5" x2="102" y2="26.5" stroke="#83A8DE"/>
</svg>
