<svg width="100" height="100" viewBox="0 0 100 100" fill="none" xmlns="http://www.w3.org/2000/svg">
<rect width="100" height="100" rx="20" fill="#FFE39A"/>
<path d="M48.3088 47.899C52.0541 47.899 55.5168 47.9343 58.6968 48.005C60.3574 41.2917 61.9828 36.6277 63.5728 34.013C64.6328 32.4937 65.6928 31.3983 66.7528 30.727C67.1768 30.4443 67.6008 30.303 68.0248 30.303C68.4841 30.303 68.7138 30.992 68.7138 32.37C68.7138 33.748 68.5901 35.1967 68.3428 36.716C68.1308 38.2353 67.8481 39.9843 67.4948 41.963C66.3288 48.4643 65.4454 53.6583 64.8448 57.545C64.2794 61.4317 63.9968 65.177 63.9968 68.781C63.9968 69.7703 63.2901 70.265 61.8768 70.265C59.6508 70.265 58.1314 69.841 57.3188 68.993C56.5061 68.1097 56.0998 66.5373 56.0998 64.276C56.0998 61.9793 56.5591 58.3753 57.4778 53.464C53.5911 53.2873 51.1354 53.199 50.1108 53.199H47.9378C47.5491 53.199 47.1604 53.2167 46.7718 53.252C45.1818 59.3293 44.3868 64.1347 44.3868 67.668C44.3868 69.7527 42.3551 70.795 38.2918 70.795C37.4084 70.795 36.8784 70.3533 36.7018 69.47C36.5604 68.5513 36.4898 67.085 36.4898 65.071C36.4898 63.0217 37.1258 59.3647 38.3978 54.1C36.2424 54.418 34.6701 54.577 33.6808 54.577C33.2214 54.577 32.9918 54.4003 32.9918 54.047C32.9918 53.2697 33.5571 52.3863 34.6878 51.397C35.8538 50.4077 37.5498 49.6127 39.7758 49.012C41.0831 44.4893 42.3904 40.7793 43.6978 37.882C39.8818 37.9527 37.0728 38.6947 35.2708 40.108C34.7054 40.532 34.2461 40.9207 33.8928 41.274C33.5394 41.592 33.2214 41.751 32.9388 41.751C32.6914 41.751 32.4441 41.539 32.1968 41.115C31.9494 40.691 31.8258 40.1257 31.8258 39.419C31.8258 36.8397 33.9988 34.8787 38.3448 33.536C41.8074 32.476 45.8354 31.9283 50.4288 31.893H50.5348C50.7821 31.893 51.1178 32.0343 51.5418 32.317C52.0011 32.5997 52.2308 33.059 52.2308 33.695C52.2308 34.331 52.1071 35.0553 51.8598 35.868C51.6478 36.6453 51.3474 37.2283 50.9588 37.617C50.7468 39.2777 49.8634 42.705 48.3088 47.899Z" fill="#403838"/>
</svg>
