<svg width="225" height="225" viewBox="0 0 225 225" fill="none" xmlns="http://www.w3.org/2000/svg">
<rect width="225" height="225" rx="15" fill="#F4F4F4"/>
<path d="M124.5 129.667H95.3332V100.5H114.083V96.3333H95.3332C93.0415 96.3333 91.1665 98.2083 91.1665 100.5V129.667C91.1665 131.958 93.0415 133.833 95.3332 133.833H124.5C126.792 133.833 128.667 131.958 128.667 129.667V110.917H124.5V129.667ZM108.271 123.062L104.187 118.146L98.4582 125.5H121.375L114 115.687L108.271 123.062ZM128.667 96.3333V90.0833H124.5V96.3333H118.25C118.271 96.3541 118.25 100.5 118.25 100.5H124.5V106.729C124.521 106.75 128.667 106.729 128.667 106.729V100.5H134.917V96.3333H128.667Z" fill="#757575"/>
</svg>
