<svg width="103" height="103" viewBox="0 0 103 103" fill="none" xmlns="http://www.w3.org/2000/svg">
<path d="M96.5625 57.9375V51.5H77.25V83.6875H83.6875V70.8125H93.3438V64.375H83.6875V57.9375H96.5625Z" fill="#0A1E51"/>
<path d="M61.1562 83.6875H48.2812V51.5H61.1562C63.7165 51.5026 66.1711 52.5207 67.9814 54.3311C69.7918 56.1414 70.8099 58.596 70.8125 61.1562V74.0312C70.8099 76.5915 69.7918 79.0461 67.9814 80.8564C66.1711 82.6668 63.7165 83.6849 61.1562 83.6875ZM54.7188 77.25H61.1562C62.0097 77.2491 62.8279 76.9098 63.4313 76.3063C64.0348 75.7029 64.3741 74.8847 64.375 74.0312V61.1562C64.3741 60.3028 64.0348 59.4846 63.4313 58.8812C62.8279 58.2777 62.0097 57.9384 61.1562 57.9375H54.7188V77.25Z" fill="#0A1E51"/>
<path d="M35.4062 51.5H19.3125V83.6875H25.75V74.0312H35.4062C37.1128 74.0287 38.7487 73.3496 39.9554 72.1429C41.1621 70.9362 41.8412 69.3003 41.8438 67.5938V57.9375C41.842 56.2307 41.1633 54.5943 39.9564 53.3874C38.7495 52.1805 37.1131 51.5017 35.4062 51.5ZM25.75 67.5938V57.9375H35.4062L35.4095 67.5938H25.75Z" fill="#0A1E51"/>
<path d="M70.8125 45.0636V32.1886C70.8239 31.7656 70.7434 31.3451 70.5767 30.9562C70.41 30.5672 70.161 30.219 69.8469 29.9355L47.3156 7.40422C47.0322 7.08989 46.6841 6.84078 46.2951 6.67407C45.9061 6.50736 45.4855 6.42702 45.0625 6.43859H12.875C11.1692 6.44369 9.53479 7.12356 8.32863 8.32972C7.12247 9.53589 6.44259 11.1703 6.4375 12.8761V90.1261C6.4375 91.8334 7.11573 93.4708 8.323 94.6781C9.53026 95.8854 11.1677 96.5636 12.875 96.5636H64.375V90.1261H12.875V12.8761H38.625V32.1886C38.6301 33.8944 39.31 35.5288 40.5161 36.735C41.7223 37.9411 43.3567 38.621 45.0625 38.6261H64.375V45.0636H70.8125ZM45.0625 32.1886V14.1636L63.0875 32.1886H45.0625Z" fill="#0A1E51"/>
</svg>
